# xmcd
#
# Track frame offsets: 
#        150
#        14300
#        30005
#        43717
#        59963
#        74046
#        87127
#        99472
#        118375
#        138046
#        152805
#
# Disc length: 2251 seconds
#
# Revision: 0
# Processed by: cddbd v1.5.1PL0 Copyright (c) Steve Scherf et al.
# Submitted via: ExactAudioCopy v0.95a3
#
DISCID=9308c90b
DTITLE=Crazy Cowboys - bullshit
DYEAR=1900
DGENRE=Country
TTITLE0=Cotton Eyed Joe
TTITLE1=All You Ever Do
TTITLE2=Diggy Liggy Lo
TTITLE3=Baby Likes To Rock It
TTITLE4=Little Bitty
TTITLE5=Six Days On The Road
TTITLE6=Ring Of Fire
TTITLE7=Queen Of Memphis
TTITLE8=Huckleberry Finn
TTITLE9=Dixie
TTITLE10=Spiel mir das Lied vom Tod
EXTD=
EXTT0=
EXTT1=
EXTT2=
EXTT3=
EXTT4=
EXTT5=
EXTT6=
EXTT7=
EXTT8=
EXTT9=
EXTT10=
PLAYORDER=
